<?xml version="1.0" encoding="utf-8" standalone="no"?>
<!DOCTYPE svg PUBLIC "-//W3C//DTD SVG 1.1//EN"
  "http://www.w3.org/Graphics/SVG/1.1/DTD/svg11.dtd">
<!-- Created with matplotlib (http://matplotlib.org/) -->
<svg height="345pt" version="1.1" viewBox="0 0 460 345" width="460pt" xmlns="http://www.w3.org/2000/svg" xmlns:xlink="http://www.w3.org/1999/xlink">
 <defs>
  <style type="text/css">
*{stroke-linecap:butt;stroke-linejoin:round;}
  </style>
 </defs>
 <g id="figure_1">
  <g id="patch_1">
   <path d="M 0 345.6 
L 460.8 345.6 
L 460.8 0 
L 0 0 
z
" style="fill:#ffffff;"/>
  </g>
  <g id="axes_1">
   <g id="patch_2">
    <path d="M 57.6 307.584 
L 414.72 307.584 
L 414.72 41.472 
L 57.6 41.472 
z
" style="fill:#ffffff;"/>
   </g>
   <g id="matplotlib.axis_1">
    <g id="xtick_1">
     <g id="line2d_1">
      <defs>
       <path d="M 0 0 
L 0 3.5 
" id="m9901093a10" style="stroke:#000000;stroke-width:0.8;"/>
      </defs>
      <g>
       <use style="stroke:#000000;stroke-width:0.8;" x="73.832727" xlink:href="#m9901093a10" y="307.584"/>
      </g>
     </g>
     <g id="text_1">
      <!-- 0 -->
      <defs>
       <path d="M 31.78125 66.40625 
Q 24.171875 66.40625 20.328125 58.90625 
Q 16.5 51.421875 16.5 36.375 
Q 16.5 21.390625 20.328125 13.890625 
Q 24.171875 6.390625 31.78125 6.390625 
Q 39.453125 6.390625 43.28125 13.890625 
Q 47.125 21.390625 47.125 36.375 
Q 47.125 51.421875 43.28125 58.90625 
Q 39.453125 66.40625 31.78125 66.40625 
z
M 31.78125 74.21875 
Q 44.046875 74.21875 50.515625 64.515625 
Q 56.984375 54.828125 56.984375 36.375 
Q 56.984375 17.96875 50.515625 8.265625 
Q 44.046875 -1.421875 31.78125 -1.421875 
Q 19.53125 -1.421875 13.0625 8.265625 
Q 6.59375 17.96875 6.59375 36.375 
Q 6.59375 54.828125 13.0625 64.515625 
Q 19.53125 74.21875 31.78125 74.21875 
z
" id="DejaVuSans-30"/>
      </defs>
      <g transform="translate(70.651477 322.182437)scale(0.1 -0.1)">
       <use xlink:href="#DejaVuSans-30"/>
      </g>
     </g>
    </g>
    <g id="xtick_2">
     <g id="line2d_2">
      <g>
       <use style="stroke:#000000;stroke-width:0.8;" x="129.918854" xlink:href="#m9901093a10" y="307.584"/>
      </g>
     </g>
     <g id="text_2">
      <!-- 2000 -->
      <defs>
       <path d="M 19.1875 8.296875 
L 53.609375 8.296875 
L 53.609375 0 
L 7.328125 0 
L 7.328125 8.296875 
Q 12.9375 14.109375 22.625 23.890625 
Q 32.328125 33.6875 34.8125 36.53125 
Q 39.546875 41.84375 41.421875 45.53125 
Q 43.3125 49.21875 43.3125 52.78125 
Q 43.3125 58.59375 39.234375 62.25 
Q 35.15625 65.921875 28.609375 65.921875 
Q 23.96875 65.921875 18.8125 64.3125 
Q 13.671875 62.703125 7.8125 59.421875 
L 7.8125 69.390625 
Q 13.765625 71.78125 18.9375 73 
Q 24.125 74.21875 28.421875 74.21875 
Q 39.75 74.21875 46.484375 68.546875 
Q 53.21875 62.890625 53.21875 53.421875 
Q 53.21875 48.921875 51.53125 44.890625 
Q 49.859375 40.875 45.40625 35.40625 
Q 44.1875 33.984375 37.640625 27.21875 
Q 31.109375 20.453125 19.1875 8.296875 
z
" id="DejaVuSans-32"/>
      </defs>
      <g transform="translate(117.193854 322.182437)scale(0.1 -0.1)">
       <use xlink:href="#DejaVuSans-32"/>
       <use x="63.623047" xlink:href="#DejaVuSans-30"/>
       <use x="127.246094" xlink:href="#DejaVuSans-30"/>
       <use x="190.869141" xlink:href="#DejaVuSans-30"/>
      </g>
     </g>
    </g>
    <g id="xtick_3">
     <g id="line2d_3">
      <g>
       <use style="stroke:#000000;stroke-width:0.8;" x="186.004981" xlink:href="#m9901093a10" y="307.584"/>
      </g>
     </g>
     <g id="text_3">
      <!-- 4000 -->
      <defs>
       <path d="M 37.796875 64.3125 
L 12.890625 25.390625 
L 37.796875 25.390625 
z
M 35.203125 72.90625 
L 47.609375 72.90625 
L 47.609375 25.390625 
L 58.015625 25.390625 
L 58.015625 17.1875 
L 47.609375 17.1875 
L 47.609375 0 
L 37.796875 0 
L 37.796875 17.1875 
L 4.890625 17.1875 
L 4.890625 26.703125 
z
" id="DejaVuSans-34"/>
      </defs>
      <g transform="translate(173.279981 322.182437)scale(0.1 -0.1)">
       <use xlink:href="#DejaVuSans-34"/>
       <use x="63.623047" xlink:href="#DejaVuSans-30"/>
       <use x="127.246094" xlink:href="#DejaVuSans-30"/>
       <use x="190.869141" xlink:href="#DejaVuSans-30"/>
      </g>
     </g>
    </g>
    <g id="xtick_4">
     <g id="line2d_4">
      <g>
       <use style="stroke:#000000;stroke-width:0.8;" x="242.091108" xlink:href="#m9901093a10" y="307.584"/>
      </g>
     </g>
     <g id="text_4">
      <!-- 6000 -->
      <defs>
       <path d="M 33.015625 40.375 
Q 26.375 40.375 22.484375 35.828125 
Q 18.609375 31.296875 18.609375 23.390625 
Q 18.609375 15.53125 22.484375 10.953125 
Q 26.375 6.390625 33.015625 6.390625 
Q 39.65625 6.390625 43.53125 10.953125 
Q 47.40625 15.53125 47.40625 23.390625 
Q 47.40625 31.296875 43.53125 35.828125 
Q 39.65625 40.375 33.015625 40.375 
z
M 52.59375 71.296875 
L 52.59375 62.3125 
Q 48.875 64.0625 45.09375 64.984375 
Q 41.3125 65.921875 37.59375 65.921875 
Q 27.828125 65.921875 22.671875 59.328125 
Q 17.53125 52.734375 16.796875 39.40625 
Q 19.671875 43.65625 24.015625 45.921875 
Q 28.375 48.1875 33.59375 48.1875 
Q 44.578125 48.1875 50.953125 41.515625 
Q 57.328125 34.859375 57.328125 23.390625 
Q 57.328125 12.15625 50.6875 5.359375 
Q 44.046875 -1.421875 33.015625 -1.421875 
Q 20.359375 -1.421875 13.671875 8.265625 
Q 6.984375 17.96875 6.984375 36.375 
Q 6.984375 53.65625 15.1875 63.9375 
Q 23.390625 74.21875 37.203125 74.21875 
Q 40.921875 74.21875 44.703125 73.484375 
Q 48.484375 72.75 52.59375 71.296875 
z
" id="DejaVuSans-36"/>
      </defs>
      <g transform="translate(229.366108 322.182437)scale(0.1 -0.1)">
       <use xlink:href="#DejaVuSans-36"/>
       <use x="63.623047" xlink:href="#DejaVuSans-30"/>
       <use x="127.246094" xlink:href="#DejaVuSans-30"/>
       <use x="190.869141" xlink:href="#DejaVuSans-30"/>
      </g>
     </g>
    </g>
    <g id="xtick_5">
     <g id="line2d_5">
      <g>
       <use style="stroke:#000000;stroke-width:0.8;" x="298.177235" xlink:href="#m9901093a10" y="307.584"/>
      </g>
     </g>
     <g id="text_5">
      <!-- 8000 -->
      <defs>
       <path d="M 31.78125 34.625 
Q 24.75 34.625 20.71875 30.859375 
Q 16.703125 27.09375 16.703125 20.515625 
Q 16.703125 13.921875 20.71875 10.15625 
Q 24.75 6.390625 31.78125 6.390625 
Q 38.8125 6.390625 42.859375 10.171875 
Q 46.921875 13.96875 46.921875 20.515625 
Q 46.921875 27.09375 42.890625 30.859375 
Q 38.875 34.625 31.78125 34.625 
z
M 21.921875 38.8125 
Q 15.578125 40.375 12.03125 44.71875 
Q 8.5 49.078125 8.5 55.328125 
Q 8.5 64.0625 14.71875 69.140625 
Q 20.953125 74.21875 31.78125 74.21875 
Q 42.671875 74.21875 48.875 69.140625 
Q 55.078125 64.0625 55.078125 55.328125 
Q 55.078125 49.078125 51.53125 44.71875 
Q 48 40.375 41.703125 38.8125 
Q 48.828125 37.15625 52.796875 32.3125 
Q 56.78125 27.484375 56.78125 20.515625 
Q 56.78125 9.90625 50.3125 4.234375 
Q 43.84375 -1.421875 31.78125 -1.421875 
Q 19.734375 -1.421875 13.25 4.234375 
Q 6.78125 9.90625 6.78125 20.515625 
Q 6.78125 27.484375 10.78125 32.3125 
Q 14.796875 37.15625 21.921875 38.8125 
z
M 18.3125 54.390625 
Q 18.3125 48.734375 21.84375 45.5625 
Q 25.390625 42.390625 31.78125 42.390625 
Q 38.140625 42.390625 41.71875 45.5625 
Q 45.3125 48.734375 45.3125 54.390625 
Q 45.3125 60.0625 41.71875 63.234375 
Q 38.140625 66.40625 31.78125 66.40625 
Q 25.390625 66.40625 21.84375 63.234375 
Q 18.3125 60.0625 18.3125 54.390625 
z
" id="DejaVuSans-38"/>
      </defs>
      <g transform="translate(285.452235 322.182437)scale(0.1 -0.1)">
       <use xlink:href="#DejaVuSans-38"/>
       <use x="63.623047" xlink:href="#DejaVuSans-30"/>
       <use x="127.246094" xlink:href="#DejaVuSans-30"/>
       <use x="190.869141" xlink:href="#DejaVuSans-30"/>
      </g>
     </g>
    </g>
    <g id="xtick_6">
     <g id="line2d_6">
      <g>
       <use style="stroke:#000000;stroke-width:0.8;" x="354.263362" xlink:href="#m9901093a10" y="307.584"/>
      </g>
     </g>
     <g id="text_6">
      <!-- 10000 -->
      <defs>
       <path d="M 12.40625 8.296875 
L 28.515625 8.296875 
L 28.515625 63.921875 
L 10.984375 60.40625 
L 10.984375 69.390625 
L 28.421875 72.90625 
L 38.28125 72.90625 
L 38.28125 8.296875 
L 54.390625 8.296875 
L 54.390625 0 
L 12.40625 0 
z
" id="DejaVuSans-31"/>
      </defs>
      <g transform="translate(338.357112 322.182437)scale(0.1 -0.1)">
       <use xlink:href="#DejaVuSans-31"/>
       <use x="63.623047" xlink:href="#DejaVuSans-30"/>
       <use x="127.246094" xlink:href="#DejaVuSans-30"/>
       <use x="190.869141" xlink:href="#DejaVuSans-30"/>
       <use x="254.492188" xlink:href="#DejaVuSans-30"/>
      </g>
     </g>
    </g>
    <g id="xtick_7">
     <g id="line2d_7">
      <g>
       <use style="stroke:#000000;stroke-width:0.8;" x="410.349489" xlink:href="#m9901093a10" y="307.584"/>
      </g>
     </g>
     <g id="text_7">
      <!-- 12000 -->
      <g transform="translate(394.443239 322.182437)scale(0.1 -0.1)">
       <use xlink:href="#DejaVuSans-31"/>
       <use x="63.623047" xlink:href="#DejaVuSans-32"/>
       <use x="127.246094" xlink:href="#DejaVuSans-30"/>
       <use x="190.869141" xlink:href="#DejaVuSans-30"/>
       <use x="254.492188" xlink:href="#DejaVuSans-30"/>
      </g>
     </g>
    </g>
    <g id="text_8">
     <!-- Zeit -->
     <defs>
      <path d="M 5.609375 72.90625 
L 62.890625 72.90625 
L 62.890625 65.375 
L 16.796875 8.296875 
L 64.015625 8.296875 
L 64.015625 0 
L 4.5 0 
L 4.5 7.515625 
L 50.59375 64.59375 
L 5.609375 64.59375 
z
" id="DejaVuSans-5a"/>
      <path d="M 56.203125 29.59375 
L 56.203125 25.203125 
L 14.890625 25.203125 
Q 15.484375 15.921875 20.484375 11.0625 
Q 25.484375 6.203125 34.421875 6.203125 
Q 39.59375 6.203125 44.453125 7.46875 
Q 49.3125 8.734375 54.109375 11.28125 
L 54.109375 2.78125 
Q 49.265625 0.734375 44.1875 -0.34375 
Q 39.109375 -1.421875 33.890625 -1.421875 
Q 20.796875 -1.421875 13.15625 6.1875 
Q 5.515625 13.8125 5.515625 26.8125 
Q 5.515625 40.234375 12.765625 48.109375 
Q 20.015625 56 32.328125 56 
Q 43.359375 56 49.78125 48.890625 
Q 56.203125 41.796875 56.203125 29.59375 
z
M 47.21875 32.234375 
Q 47.125 39.59375 43.09375 43.984375 
Q 39.0625 48.390625 32.421875 48.390625 
Q 24.90625 48.390625 20.390625 44.140625 
Q 15.875 39.890625 15.1875 32.171875 
z
" id="DejaVuSans-65"/>
      <path d="M 9.421875 54.6875 
L 18.40625 54.6875 
L 18.40625 0 
L 9.421875 0 
z
M 9.421875 75.984375 
L 18.40625 75.984375 
L 18.40625 64.59375 
L 9.421875 64.59375 
z
" id="DejaVuSans-69"/>
      <path d="M 18.3125 70.21875 
L 18.3125 54.6875 
L 36.8125 54.6875 
L 36.8125 47.703125 
L 18.3125 47.703125 
L 18.3125 18.015625 
Q 18.3125 11.328125 20.140625 9.421875 
Q 21.96875 7.515625 27.59375 7.515625 
L 36.8125 7.515625 
L 36.8125 0 
L 27.59375 0 
Q 17.1875 0 13.234375 3.875 
Q 9.28125 7.765625 9.28125 18.015625 
L 9.28125 47.703125 
L 2.6875 47.703125 
L 2.6875 54.6875 
L 9.28125 54.6875 
L 9.28125 70.21875 
z
" id="DejaVuSans-74"/>
     </defs>
     <g transform="translate(226.309219 335.860562)scale(0.1 -0.1)">
      <use xlink:href="#DejaVuSans-5a"/>
      <use x="68.505859" xlink:href="#DejaVuSans-65"/>
      <use x="130.029297" xlink:href="#DejaVuSans-69"/>
      <use x="157.8125" xlink:href="#DejaVuSans-74"/>
     </g>
    </g>
   </g>
   <g id="matplotlib.axis_2">
    <g id="ytick_1">
     <g id="line2d_8">
      <defs>
       <path d="M 0 0 
L -3.5 0 
" id="m9165aade24" style="stroke:#000000;stroke-width:0.8;"/>
      </defs>
      <g>
       <use style="stroke:#000000;stroke-width:0.8;" x="57.6" xlink:href="#m9165aade24" y="266.934671"/>
      </g>
     </g>
     <g id="text_9">
      <!-- 1 -->
      <g transform="translate(44.2375 270.73389)scale(0.1 -0.1)">
       <use xlink:href="#DejaVuSans-31"/>
      </g>
     </g>
    </g>
    <g id="ytick_2">
     <g id="line2d_9">
      <g>
       <use style="stroke:#000000;stroke-width:0.8;" x="57.6" xlink:href="#m9165aade24" y="208.488371"/>
      </g>
     </g>
     <g id="text_10">
      <!-- 2 -->
      <g transform="translate(44.2375 212.287589)scale(0.1 -0.1)">
       <use xlink:href="#DejaVuSans-32"/>
      </g>
     </g>
    </g>
    <g id="ytick_3">
     <g id="line2d_10">
      <g>
       <use style="stroke:#000000;stroke-width:0.8;" x="57.6" xlink:href="#m9165aade24" y="150.04207"/>
      </g>
     </g>
     <g id="text_11">
      <!-- 3 -->
      <defs>
       <path d="M 40.578125 39.3125 
Q 47.65625 37.796875 51.625 33 
Q 55.609375 28.21875 55.609375 21.1875 
Q 55.609375 10.40625 48.1875 4.484375 
Q 40.765625 -1.421875 27.09375 -1.421875 
Q 22.515625 -1.421875 17.65625 -0.515625 
Q 12.796875 0.390625 7.625 2.203125 
L 7.625 11.71875 
Q 11.71875 9.328125 16.59375 8.109375 
Q 21.484375 6.890625 26.8125 6.890625 
Q 36.078125 6.890625 40.9375 10.546875 
Q 45.796875 14.203125 45.796875 21.1875 
Q 45.796875 27.640625 41.28125 31.265625 
Q 36.765625 34.90625 28.71875 34.90625 
L 20.21875 34.90625 
L 20.21875 43.015625 
L 29.109375 43.015625 
Q 36.375 43.015625 40.234375 45.921875 
Q 44.09375 48.828125 44.09375 54.296875 
Q 44.09375 59.90625 40.109375 62.90625 
Q 36.140625 65.921875 28.71875 65.921875 
Q 24.65625 65.921875 20.015625 65.03125 
Q 15.375 64.15625 9.8125 62.3125 
L 9.8125 71.09375 
Q 15.4375 72.65625 20.34375 73.4375 
Q 25.25 74.21875 29.59375 74.21875 
Q 40.828125 74.21875 47.359375 69.109375 
Q 53.90625 64.015625 53.90625 55.328125 
Q 53.90625 49.265625 50.4375 45.09375 
Q 46.96875 40.921875 40.578125 39.3125 
z
" id="DejaVuSans-33"/>
      </defs>
      <g transform="translate(44.2375 153.841289)scale(0.1 -0.1)">
       <use xlink:href="#DejaVuSans-33"/>
      </g>
     </g>
    </g>
    <g id="ytick_4">
     <g id="line2d_11">
      <g>
       <use style="stroke:#000000;stroke-width:0.8;" x="57.6" xlink:href="#m9165aade24" y="91.59577"/>
      </g>
     </g>
     <g id="text_12">
      <!-- 4 -->
      <g transform="translate(44.2375 95.394988)scale(0.1 -0.1)">
       <use xlink:href="#DejaVuSans-34"/>
      </g>
     </g>
    </g>
    <g id="text_13">
     <!-- Distanz -->
     <defs>
      <path d="M 19.671875 64.796875 
L 19.671875 8.109375 
L 31.59375 8.109375 
Q 46.6875 8.109375 53.6875 14.9375 
Q 60.6875 21.78125 60.6875 36.53125 
Q 60.6875 51.171875 53.6875 57.984375 
Q 46.6875 64.796875 31.59375 64.796875 
z
M 9.8125 72.90625 
L 30.078125 72.90625 
Q 51.265625 72.90625 61.171875 64.09375 
Q 71.09375 55.28125 71.09375 36.53125 
Q 71.09375 17.671875 61.125 8.828125 
Q 51.171875 0 30.078125 0 
L 9.8125 0 
z
" id="DejaVuSans-44"/>
      <path d="M 44.28125 53.078125 
L 44.28125 44.578125 
Q 40.484375 46.53125 36.375 47.5 
Q 32.28125 48.484375 27.875 48.484375 
Q 21.1875 48.484375 17.84375 46.4375 
Q 14.5 44.390625 14.5 40.28125 
Q 14.5 37.15625 16.890625 35.375 
Q 19.28125 33.59375 26.515625 31.984375 
L 29.59375 31.296875 
Q 39.15625 29.25 43.1875 25.515625 
Q 47.21875 21.78125 47.21875 15.09375 
Q 47.21875 7.46875 41.1875 3.015625 
Q 35.15625 -1.421875 24.609375 -1.421875 
Q 20.21875 -1.421875 15.453125 -0.5625 
Q 10.6875 0.296875 5.421875 2 
L 5.421875 11.28125 
Q 10.40625 8.6875 15.234375 7.390625 
Q 20.0625 6.109375 24.8125 6.109375 
Q 31.15625 6.109375 34.5625 8.28125 
Q 37.984375 10.453125 37.984375 14.40625 
Q 37.984375 18.0625 35.515625 20.015625 
Q 33.0625 21.96875 24.703125 23.78125 
L 21.578125 24.515625 
Q 13.234375 26.265625 9.515625 29.90625 
Q 5.8125 33.546875 5.8125 39.890625 
Q 5.8125 47.609375 11.28125 51.796875 
Q 16.75 56 26.8125 56 
Q 31.78125 56 36.171875 55.265625 
Q 40.578125 54.546875 44.28125 53.078125 
z
" id="DejaVuSans-73"/>
      <path d="M 34.28125 27.484375 
Q 23.390625 27.484375 19.1875 25 
Q 14.984375 22.515625 14.984375 16.5 
Q 14.984375 11.71875 18.140625 8.90625 
Q 21.296875 6.109375 26.703125 6.109375 
Q 34.1875 6.109375 38.703125 11.40625 
Q 43.21875 16.703125 43.21875 25.484375 
L 43.21875 27.484375 
z
M 52.203125 31.203125 
L 52.203125 0 
L 43.21875 0 
L 43.21875 8.296875 
Q 40.140625 3.328125 35.546875 0.953125 
Q 30.953125 -1.421875 24.3125 -1.421875 
Q 15.921875 -1.421875 10.953125 3.296875 
Q 6 8.015625 6 15.921875 
Q 6 25.140625 12.171875 29.828125 
Q 18.359375 34.515625 30.609375 34.515625 
L 43.21875 34.515625 
L 43.21875 35.40625 
Q 43.21875 41.609375 39.140625 45 
Q 35.0625 48.390625 27.6875 48.390625 
Q 23 48.390625 18.546875 47.265625 
Q 14.109375 46.140625 10.015625 43.890625 
L 10.015625 52.203125 
Q 14.9375 54.109375 19.578125 55.046875 
Q 24.21875 56 28.609375 56 
Q 40.484375 56 46.34375 49.84375 
Q 52.203125 43.703125 52.203125 31.203125 
z
" id="DejaVuSans-61"/>
      <path d="M 54.890625 33.015625 
L 54.890625 0 
L 45.90625 0 
L 45.90625 32.71875 
Q 45.90625 40.484375 42.875 44.328125 
Q 39.84375 48.1875 33.796875 48.1875 
Q 26.515625 48.1875 22.3125 43.546875 
Q 18.109375 38.921875 18.109375 30.90625 
L 18.109375 0 
L 9.078125 0 
L 9.078125 54.6875 
L 18.109375 54.6875 
L 18.109375 46.1875 
Q 21.34375 51.125 25.703125 53.5625 
Q 30.078125 56 35.796875 56 
Q 45.21875 56 50.046875 50.171875 
Q 54.890625 44.34375 54.890625 33.015625 
z
" id="DejaVuSans-6e"/>
      <path d="M 5.515625 54.6875 
L 48.1875 54.6875 
L 48.1875 46.484375 
L 14.40625 7.171875 
L 48.1875 7.171875 
L 48.1875 0 
L 4.296875 0 
L 4.296875 8.203125 
L 38.09375 47.515625 
L 5.515625 47.515625 
z
" id="DejaVuSans-7a"/>
     </defs>
     <g transform="translate(38.157812 193.188937)rotate(-90)scale(0.1 -0.1)">
      <use xlink:href="#DejaVuSans-44"/>
      <use x="77.001953" xlink:href="#DejaVuSans-69"/>
      <use x="104.785156" xlink:href="#DejaVuSans-73"/>
      <use x="156.884766" xlink:href="#DejaVuSans-74"/>
      <use x="196.09375" xlink:href="#DejaVuSans-61"/>
      <use x="257.373047" xlink:href="#DejaVuSans-6e"/>
      <use x="320.751953" xlink:href="#DejaVuSans-7a"/>
     </g>
    </g>
   </g>
   <g id="line2d_12">
    <path clip-path="url(#p9a7919b344)" d="M 73.832727 179.265259 
L 73.916856 120.817838 
L 73.9449 120.817854 
L 115.560806 120.92757 
L 116.009495 121.587548 
L 116.486227 122.650224 
L 116.991002 124.212421 
L 118.53337 129.951475 
L 119.26249 132.912628 
L 119.823351 135.554503 
L 120.187911 136.728095 
L 120.580514 137.386008 
L 120.6366 137.442293 
L 121.449849 140.336738 
L 122.066796 142.632714 
L 122.599615 144.082848 
L 122.992217 145.172084 
L 123.38482 145.959962 
L 123.553079 146.450307 
L 123.833509 147.634613 
L 126.189127 152.182314 
L 126.553687 152.431622 
L 127.086505 153.070244 
L 127.338892 153.168359 
L 127.535194 153.175682 
L 127.759538 153.163304 
L 127.843667 153.252252 
L 128.376486 154.136033 
L 128.488658 154.111485 
L 128.628873 153.974951 
L 129.021476 152.783944 
L 129.133648 152.689608 
L 129.638424 151.952019 
L 129.862768 151.702433 
L 130.115156 151.162493 
L 130.255371 150.698584 
L 130.479715 150.228705 
L 131.517309 147.413405 
L 131.909912 146.374002 
L 132.022084 146.410809 
L 132.050127 146.349032 
L 132.975548 144.090139 
L 133.508366 143.470003 
L 134.041184 142.762495 
L 134.517917 141.893949 
L 134.854433 141.387369 
L 135.275079 140.660957 
L 136.368759 138.677819 
L 136.957663 138.672082 
L 137.490481 138.946332 
L 137.911127 139.000282 
L 138.191558 138.999004 
L 138.640247 139.038591 
L 139.31328 139.061838 
L 139.761969 138.820681 
L 140.743477 138.054548 
L 141.388467 136.813802 
L 142.173673 135.272219 
L 143.940386 129.512602 
L 145.454711 125.083544 
L 145.847314 124.546691 
L 146.127745 124.479456 
L 146.352089 124.580685 
L 146.884908 124.858804 
L 147.922501 125.188526 
L 148.483362 125.36178 
L 149.464869 124.617644 
L 149.801386 125.154265 
L 150.137903 125.325917 
L 150.670721 125.996679 
L 151.007238 126.732331 
L 151.652228 128.056968 
L 152.297219 129.471078 
L 152.409391 129.776262 
L 152.465477 129.760557 
L 152.661779 129.84266 
L 153.22264 131.051253 
L 153.923716 133.445819 
L 154.456535 134.185435 
L 155.24174 137.406127 
L 156.054989 139.016417 
L 156.587807 141.192734 
L 157.288884 142.34283 
L 157.513229 142.905448 
L 157.877788 143.453793 
L 158.018004 143.7132 
L 158.606908 146.204532 
L 159.167769 147.400271 
L 159.756674 148.858822 
L 160.654052 151.701096 
L 162.532937 160.552917 
L 164.159435 171.200972 
L 165.3092 180.179201 
L 165.67376 183.024689 
L 167.075913 195.698874 
L 167.945248 202.948369 
L 168.225679 205.483329 
L 169.291315 215.310354 
L 170.16065 223.82771 
L 171.759105 238.357299 
L 171.927363 239.504306 
L 174.170808 258.20095 
L 176.38621 274.294375 
L 177.227502 278.609561 
L 178.545526 283.677299 
L 179.162474 285.165555 
L 180.087895 286.130623 
L 180.648756 286.026383 
L 180.817014 285.967636 
L 180.901143 286.012167 
L 180.929187 285.987606 
L 181.546134 285.277367 
L 181.910694 284.317573 
L 182.751986 281.755894 
L 183.649364 277.881129 
L 184.546742 273.03511 
L 185.864766 266.177431 
L 186.678015 263.146288 
L 187.351048 261.20176 
L 188.136254 259.690078 
L 188.528857 259.344709 
L 188.92146 259.32916 
L 189.286019 259.536097 
L 189.902967 260.251661 
L 190.519914 261.50604 
L 190.800345 261.892422 
L 191.024689 261.889299 
L 191.641637 261.275747 
L 192.258584 260.226464 
L 192.735316 259.506318 
L 193.099876 259.354273 
L 193.352264 259.438858 
L 193.632694 259.522142 
L 193.941168 259.638455 
L 194.277685 259.736496 
L 194.502029 259.540885 
L 195.006804 258.772859 
L 195.315278 257.951745 
L 196.268742 254.956475 
L 197.390465 251.250518 
L 197.979369 249.284755 
L 199.63391 245.767962 
L 200.082599 244.767148 
L 200.587374 242.51275 
L 201.428666 237.99381 
L 201.877355 236.350728 
L 204.064714 229.887453 
L 204.261015 229.77996 
L 204.541446 229.068042 
L 204.821877 228.29076 
L 205.214479 227.132544 
L 206.280116 224.306676 
L 206.953149 223.621208 
L 207.766398 222.324529 
L 208.074872 221.398166 
L 208.691819 219.778464 
L 209.196595 217.868515 
L 209.561154 215.751525 
L 209.925714 213.967597 
L 210.486575 211.896298 
L 211.215695 209.916592 
L 211.44004 209.716416 
L 212.758064 206.326583 
L 212.982408 206.20085 
L 213.09458 205.948923 
L 214.18826 201.626069 
L 214.524777 200.886978 
L 214.721078 200.429254 
L 215.506284 199.305357 
L 215.786714 198.684018 
L 215.983016 198.557873 
L 216.347576 197.827138 
L 216.543877 197.45195 
L 216.796265 196.843846 
L 217.216911 195.677676 
L 218.31059 192.90529 
L 218.703193 191.750189 
L 219.264054 190.626598 
L 219.32014 190.542384 
L 219.572528 190.139227 
L 219.937088 189.703347 
L 220.582078 188.73162 
L 221.030767 187.511737 
L 221.311198 186.694393 
L 222.292705 184.098099 
L 222.545093 183.443519 
L 222.881609 182.61442 
L 223.190083 181.986052 
L 224.676366 179.230047 
L 224.956796 178.982098 
L 225.153098 178.787081 
L 225.405485 178.393242 
L 225.770045 177.770143 
L 225.99439 177.394626 
L 226.27482 176.9188 
L 227.536758 174.241328 
L 228.518265 170.793892 
L 228.966954 169.126738 
L 230.369107 165.271763 
L 230.873883 163.764369 
L 232.556466 158.775964 
L 232.612552 158.680743 
L 233.173414 157.418964 
L 233.95862 156.044984 
L 234.687739 154.559521 
L 235.164471 153.568219 
L 235.585117 152.531019 
L 235.893591 151.577362 
L 236.650754 149.340833 
L 237.183572 148.306538 
L 238.473553 146.460093 
L 239.118543 145.009253 
L 240.492653 141.85314 
L 240.885256 141.799595 
L 241.502204 141.792106 
L 241.810677 141.507498 
L 242.680012 140.601837 
L 243.268917 140.230766 
L 243.689563 140.343572 
L 244.166295 140.799277 
L 244.67107 141.381213 
L 244.727156 141.334572 
L 244.755199 141.381914 
L 245.344103 142.145163 
L 246.185395 143.861634 
L 247.587548 148.176629 
L 248.541013 151.467428 
L 249.186003 153.269305 
L 249.578606 154.105112 
L 251.120974 160.87587 
L 251.653793 162.959301 
L 252.326826 165.809858 
L 256.701544 185.965832 
L 257.290448 188.616325 
L 257.570879 189.894945 
L 258.888903 195.698452 
L 259.253463 196.816965 
L 260.431271 200.188531 
L 260.655616 200.690783 
L 260.739745 200.642583 
L 261.721252 201.026804 
L 262.169941 200.60808 
L 262.478415 200.334557 
L 262.61863 200.175582 
L 262.955147 199.315537 
L 263.71231 197.902109 
L 265.142506 192.364828 
L 265.338808 191.750877 
L 267.133564 181.253385 
L 267.582253 177.948961 
L 270.021999 164.415111 
L 271.760669 156.645188 
L 271.900884 156.176826 
L 274.116286 147.871175 
L 274.312588 147.430318 
L 275.15388 144.861578 
L 275.294095 144.571575 
L 275.322138 144.582533 
L 275.490396 144.584711 
L 275.854956 144.635896 
L 276.331688 144.694063 
L 276.415818 144.442928 
L 276.499947 144.49743 
L 277.257109 145.123715 
L 277.425368 145.181711 
L 277.930143 145.925649 
L 278.434918 147.061034 
L 279.612727 149.497084 
L 281.099009 154.039333 
L 282.38899 158.949785 
L 283.987445 166.298481 
L 288.474335 187.240554 
L 289.427799 190.359511 
L 290.269091 192.385596 
L 290.970167 193.480574 
L 291.474943 193.917132 
L 291.839502 194.023581 
L 292.344278 193.918873 
L 292.792967 193.56488 
L 293.213613 193.000248 
L 293.746431 191.996395 
L 294.419464 190.297373 
L 295.176627 187.889257 
L 296.690952 181.944001 
L 298.485708 173.995705 
L 303.084771 152.964845 
L 303.701718 150.768481 
L 305.300173 144.205565 
L 306.730369 137.948394 
L 307.880135 133.134464 
L 308.38491 130.790066 
L 309.170116 127.628026 
L 311.301388 119.981828 
L 313.713092 110.370405 
L 316.265011 98.712555 
L 316.881958 95.628703 
L 318.171939 88.882672 
L 319.09736 84.089675 
L 321.621236 71.017239 
L 322.322312 68.285896 
L 322.714915 66.446704 
L 323.387949 63.691839 
L 324.31337 60.738918 
L 324.790102 58.962947 
L 325.379006 57.719675 
L 325.995954 56.899084 
L 326.640944 55.158145 
L 327.089633 54.203443 
L 327.42615 54.105344 
L 327.874839 53.580434 
L 328.211356 53.704553 
L 328.519829 53.868355 
L 329.669595 55.311513 
L 330.17437 55.288689 
L 330.595016 56.096521 
L 330.959576 56.429793 
L 331.18392 57.141167 
L 331.969126 59.867057 
L 332.614117 61.361056 
L 332.894547 62.234852 
L 333.904098 67.752081 
L 334.773433 72.158098 
L 335.530595 75.350978 
L 336.203629 79.255713 
L 337.353394 87.72352 
L 339.120107 101.571737 
L 339.260323 101.799657 
L 340.382045 109.730609 
L 341.027036 113.73715 
L 341.111165 113.710023 
L 343.550911 127.304471 
L 344.167859 130.947729 
L 344.868935 134.469975 
L 345.261538 136.352983 
L 347.953672 149.544332 
L 348.486491 152.102301 
L 351.459055 167.09744 
L 351.879701 169.091338 
L 352.608821 171.461114 
L 353.141639 173.551146 
L 355.048567 182.394743 
L 356.422678 188.409693 
L 358.217434 195.056607 
L 358.385692 195.270256 
L 358.946553 196.755325 
L 359.451328 198.346647 
L 360.320663 201.540987 
L 362.367807 209.046125 
L 362.592152 209.642701 
L 362.984754 210.198918 
L 363.181056 210.829698 
L 363.685831 212.937375 
L 363.994305 214.098576 
L 364.49908 215.28616 
L 365.003855 217.006025 
L 365.396458 218.43889 
L 365.817104 219.612909 
L 367.752075 225.431056 
L 368.228807 227.335151 
L 370.556382 235.407914 
L 374.650669 253.850639 
L 378.240181 270.92996 
L 379.221688 275.357821 
L 380.259281 280.031363 
L 381.745564 286.872754 
L 382.839243 291.126702 
L 383.596406 293.294167 
L 384.18531 294.385669 
L 384.605956 295.107791 
L 384.746172 295.424041 
L 384.774215 295.40752 
L 385.110731 295.376919 
L 385.391162 295.227113 
L 385.839851 294.84141 
L 386.260497 294.091245 
L 386.709186 294.349881 
L 387.073746 293.629091 
L 387.101789 293.658187 
L 387.578521 294.079268 
L 387.746779 293.956732 
L 388.02721 293.544609 
L 388.139382 293.505355 
L 388.307641 293.367679 
L 388.335684 293.410714 
L 388.924588 294.555024 
L 388.980674 294.545884 
L 389.008717 294.487156 
L 389.40132 293.621229 
L 389.513492 293.71017 
L 389.737837 293.994333 
L 389.821966 294.203 
L 389.878052 294.152076 
L 390.046311 294.132217 
L 390.298698 294.30372 
L 390.495 294.538635 
L 390.77543 294.665457 
L 390.915646 294.859008 
L 391.083904 294.872726 
L 391.308248 294.918404 
L 391.588679 294.99654 
L 392.009325 294.856606 
L 392.373885 294.570078 
L 392.850617 293.866161 
L 393.467564 292.840936 
L 394.224727 291.612662 
L 395.066019 289.356951 
L 395.458622 288.527075 
L 396.299914 285.767317 
L 397.197292 283.737625 
L 397.982498 280.591394 
L 398.347057 279.330672 
L 398.487273 278.620264 
L 398.487273 278.620264 
" style="fill:none;stroke:#1f77b4;stroke-linecap:square;stroke-width:1.5;"/>
   </g>
   <g id="patch_3">
    <path d="M 57.6 307.584 
L 57.6 41.472 
" style="fill:none;stroke:#000000;stroke-linecap:square;stroke-linejoin:miter;stroke-width:0.8;"/>
   </g>
   <g id="patch_4">
    <path d="M 414.72 307.584 
L 414.72 41.472 
" style="fill:none;stroke:#000000;stroke-linecap:square;stroke-linejoin:miter;stroke-width:0.8;"/>
   </g>
   <g id="patch_5">
    <path d="M 57.6 307.584 
L 414.72 307.584 
" style="fill:none;stroke:#000000;stroke-linecap:square;stroke-linejoin:miter;stroke-width:0.8;"/>
   </g>
   <g id="patch_6">
    <path d="M 57.6 41.472 
L 414.72 41.472 
" style="fill:none;stroke:#000000;stroke-linecap:square;stroke-linejoin:miter;stroke-width:0.8;"/>
   </g>
   <g id="text_14">
    <!-- Roboterabstand -->
    <defs>
     <path d="M 44.390625 34.1875 
Q 47.5625 33.109375 50.5625 29.59375 
Q 53.5625 26.078125 56.59375 19.921875 
L 66.609375 0 
L 56 0 
L 46.6875 18.703125 
Q 43.0625 26.03125 39.671875 28.421875 
Q 36.28125 30.8125 30.421875 30.8125 
L 19.671875 30.8125 
L 19.671875 0 
L 9.8125 0 
L 9.8125 72.90625 
L 32.078125 72.90625 
Q 44.578125 72.90625 50.734375 67.671875 
Q 56.890625 62.453125 56.890625 51.90625 
Q 56.890625 45.015625 53.6875 40.46875 
Q 50.484375 35.9375 44.390625 34.1875 
z
M 19.671875 64.796875 
L 19.671875 38.921875 
L 32.078125 38.921875 
Q 39.203125 38.921875 42.84375 42.21875 
Q 46.484375 45.515625 46.484375 51.90625 
Q 46.484375 58.296875 42.84375 61.546875 
Q 39.203125 64.796875 32.078125 64.796875 
z
" id="DejaVuSans-52"/>
     <path d="M 30.609375 48.390625 
Q 23.390625 48.390625 19.1875 42.75 
Q 14.984375 37.109375 14.984375 27.296875 
Q 14.984375 17.484375 19.15625 11.84375 
Q 23.34375 6.203125 30.609375 6.203125 
Q 37.796875 6.203125 41.984375 11.859375 
Q 46.1875 17.53125 46.1875 27.296875 
Q 46.1875 37.015625 41.984375 42.703125 
Q 37.796875 48.390625 30.609375 48.390625 
z
M 30.609375 56 
Q 42.328125 56 49.015625 48.375 
Q 55.71875 40.765625 55.71875 27.296875 
Q 55.71875 13.875 49.015625 6.21875 
Q 42.328125 -1.421875 30.609375 -1.421875 
Q 18.84375 -1.421875 12.171875 6.21875 
Q 5.515625 13.875 5.515625 27.296875 
Q 5.515625 40.765625 12.171875 48.375 
Q 18.84375 56 30.609375 56 
z
" id="DejaVuSans-6f"/>
     <path d="M 48.6875 27.296875 
Q 48.6875 37.203125 44.609375 42.84375 
Q 40.53125 48.484375 33.40625 48.484375 
Q 26.265625 48.484375 22.1875 42.84375 
Q 18.109375 37.203125 18.109375 27.296875 
Q 18.109375 17.390625 22.1875 11.75 
Q 26.265625 6.109375 33.40625 6.109375 
Q 40.53125 6.109375 44.609375 11.75 
Q 48.6875 17.390625 48.6875 27.296875 
z
M 18.109375 46.390625 
Q 20.953125 51.265625 25.265625 53.625 
Q 29.59375 56 35.59375 56 
Q 45.5625 56 51.78125 48.09375 
Q 58.015625 40.1875 58.015625 27.296875 
Q 58.015625 14.40625 51.78125 6.484375 
Q 45.5625 -1.421875 35.59375 -1.421875 
Q 29.59375 -1.421875 25.265625 0.953125 
Q 20.953125 3.328125 18.109375 8.203125 
L 18.109375 0 
L 9.078125 0 
L 9.078125 75.984375 
L 18.109375 75.984375 
z
" id="DejaVuSans-62"/>
     <path d="M 41.109375 46.296875 
Q 39.59375 47.171875 37.8125 47.578125 
Q 36.03125 48 33.890625 48 
Q 26.265625 48 22.1875 43.046875 
Q 18.109375 38.09375 18.109375 28.8125 
L 18.109375 0 
L 9.078125 0 
L 9.078125 54.6875 
L 18.109375 54.6875 
L 18.109375 46.1875 
Q 20.953125 51.171875 25.484375 53.578125 
Q 30.03125 56 36.53125 56 
Q 37.453125 56 38.578125 55.875 
Q 39.703125 55.765625 41.0625 55.515625 
z
" id="DejaVuSans-72"/>
     <path d="M 45.40625 46.390625 
L 45.40625 75.984375 
L 54.390625 75.984375 
L 54.390625 0 
L 45.40625 0 
L 45.40625 8.203125 
Q 42.578125 3.328125 38.25 0.953125 
Q 33.9375 -1.421875 27.875 -1.421875 
Q 17.96875 -1.421875 11.734375 6.484375 
Q 5.515625 14.40625 5.515625 27.296875 
Q 5.515625 40.1875 11.734375 48.09375 
Q 17.96875 56 27.875 56 
Q 33.9375 56 38.25 53.625 
Q 42.578125 51.265625 45.40625 46.390625 
z
M 14.796875 27.296875 
Q 14.796875 17.390625 18.875 11.75 
Q 22.953125 6.109375 30.078125 6.109375 
Q 37.203125 6.109375 41.296875 11.75 
Q 45.40625 17.390625 45.40625 27.296875 
Q 45.40625 37.203125 41.296875 42.84375 
Q 37.203125 48.484375 30.078125 48.484375 
Q 22.953125 48.484375 18.875 42.84375 
Q 14.796875 37.203125 14.796875 27.296875 
z
" id="DejaVuSans-64"/>
    </defs>
    <g transform="translate(188.080312 35.472)scale(0.12 -0.12)">
     <use xlink:href="#DejaVuSans-52"/>
     <use x="69.419922" xlink:href="#DejaVuSans-6f"/>
     <use x="130.601562" xlink:href="#DejaVuSans-62"/>
     <use x="194.078125" xlink:href="#DejaVuSans-6f"/>
     <use x="255.259766" xlink:href="#DejaVuSans-74"/>
     <use x="294.46875" xlink:href="#DejaVuSans-65"/>
     <use x="355.992188" xlink:href="#DejaVuSans-72"/>
     <use x="397.105469" xlink:href="#DejaVuSans-61"/>
     <use x="458.384766" xlink:href="#DejaVuSans-62"/>
     <use x="521.861328" xlink:href="#DejaVuSans-73"/>
     <use x="573.960938" xlink:href="#DejaVuSans-74"/>
     <use x="613.169922" xlink:href="#DejaVuSans-61"/>
     <use x="674.449219" xlink:href="#DejaVuSans-6e"/>
     <use x="737.828125" xlink:href="#DejaVuSans-64"/>
    </g>
   </g>
   <g id="legend_1">
    <g id="patch_7">
     <path d="M 64.6 64.150125 
L 176.732812 64.150125 
Q 178.732812 64.150125 178.732812 62.150125 
L 178.732812 48.472 
Q 178.732812 46.472 176.732812 46.472 
L 64.6 46.472 
Q 62.6 46.472 62.6 48.472 
L 62.6 62.150125 
Q 62.6 64.150125 64.6 64.150125 
z
" style="fill:#ffffff;opacity:0.8;stroke:#cccccc;stroke-linejoin:miter;"/>
    </g>
    <g id="line2d_13">
     <path d="M 66.6 54.570438 
L 86.6 54.570438 
" style="fill:none;stroke:#1f77b4;stroke-linecap:square;stroke-width:1.5;"/>
    </g>
    <g id="line2d_14"/>
    <g id="text_15">
     <!-- Roboterabstand -->
     <g transform="translate(94.6 58.070438)scale(0.1 -0.1)">
      <use xlink:href="#DejaVuSans-52"/>
      <use x="69.419922" xlink:href="#DejaVuSans-6f"/>
      <use x="130.601562" xlink:href="#DejaVuSans-62"/>
      <use x="194.078125" xlink:href="#DejaVuSans-6f"/>
      <use x="255.259766" xlink:href="#DejaVuSans-74"/>
      <use x="294.46875" xlink:href="#DejaVuSans-65"/>
      <use x="355.992188" xlink:href="#DejaVuSans-72"/>
      <use x="397.105469" xlink:href="#DejaVuSans-61"/>
      <use x="458.384766" xlink:href="#DejaVuSans-62"/>
      <use x="521.861328" xlink:href="#DejaVuSans-73"/>
      <use x="573.960938" xlink:href="#DejaVuSans-74"/>
      <use x="613.169922" xlink:href="#DejaVuSans-61"/>
      <use x="674.449219" xlink:href="#DejaVuSans-6e"/>
      <use x="737.828125" xlink:href="#DejaVuSans-64"/>
     </g>
    </g>
   </g>
  </g>
 </g>
 <defs>
  <clipPath id="p9a7919b344">
   <rect height="266.112" width="357.12" x="57.6" y="41.472"/>
  </clipPath>
 </defs>
</svg>
