<?xml version="1.0" encoding="utf-8" standalone="no"?>
<!DOCTYPE svg PUBLIC "-//W3C//DTD SVG 1.1//EN"
  "http://www.w3.org/Graphics/SVG/1.1/DTD/svg11.dtd">
<!-- Created with matplotlib (http://matplotlib.org/) -->
<svg height="345pt" version="1.1" viewBox="0 0 460 345" width="460pt" xmlns="http://www.w3.org/2000/svg" xmlns:xlink="http://www.w3.org/1999/xlink">
 <defs>
  <style type="text/css">
*{stroke-linecap:butt;stroke-linejoin:round;}
  </style>
 </defs>
 <g id="figure_1">
  <g id="patch_1">
   <path d="M 0 345.6 
L 460.8 345.6 
L 460.8 0 
L 0 0 
z
" style="fill:#ffffff;"/>
  </g>
  <g id="axes_1">
   <g id="patch_2">
    <path d="M 57.6 307.584 
L 414.72 307.584 
L 414.72 41.472 
L 57.6 41.472 
z
" style="fill:#ffffff;"/>
   </g>
   <g id="matplotlib.axis_1">
    <g id="xtick_1">
     <g id="line2d_1">
      <defs>
       <path d="M 0 0 
L 0 3.5 
" id="mc54031f74f" style="stroke:#000000;stroke-width:0.8;"/>
      </defs>
      <g>
       <use style="stroke:#000000;stroke-width:0.8;" x="73.832727" xlink:href="#mc54031f74f" y="307.584"/>
      </g>
     </g>
     <g id="text_1">
      <!-- 0 -->
      <defs>
       <path d="M 31.78125 66.40625 
Q 24.171875 66.40625 20.328125 58.90625 
Q 16.5 51.421875 16.5 36.375 
Q 16.5 21.390625 20.328125 13.890625 
Q 24.171875 6.390625 31.78125 6.390625 
Q 39.453125 6.390625 43.28125 13.890625 
Q 47.125 21.390625 47.125 36.375 
Q 47.125 51.421875 43.28125 58.90625 
Q 39.453125 66.40625 31.78125 66.40625 
z
M 31.78125 74.21875 
Q 44.046875 74.21875 50.515625 64.515625 
Q 56.984375 54.828125 56.984375 36.375 
Q 56.984375 17.96875 50.515625 8.265625 
Q 44.046875 -1.421875 31.78125 -1.421875 
Q 19.53125 -1.421875 13.0625 8.265625 
Q 6.59375 17.96875 6.59375 36.375 
Q 6.59375 54.828125 13.0625 64.515625 
Q 19.53125 74.21875 31.78125 74.21875 
z
" id="DejaVuSans-30"/>
      </defs>
      <g transform="translate(70.651477 322.182437)scale(0.1 -0.1)">
       <use xlink:href="#DejaVuSans-30"/>
      </g>
     </g>
    </g>
    <g id="xtick_2">
     <g id="line2d_2">
      <g>
       <use style="stroke:#000000;stroke-width:0.8;" x="134.301072" xlink:href="#mc54031f74f" y="307.584"/>
      </g>
     </g>
     <g id="text_2">
      <!-- 1000 -->
      <defs>
       <path d="M 12.40625 8.296875 
L 28.515625 8.296875 
L 28.515625 63.921875 
L 10.984375 60.40625 
L 10.984375 69.390625 
L 28.421875 72.90625 
L 38.28125 72.90625 
L 38.28125 8.296875 
L 54.390625 8.296875 
L 54.390625 0 
L 12.40625 0 
z
" id="DejaVuSans-31"/>
      </defs>
      <g transform="translate(121.576072 322.182437)scale(0.1 -0.1)">
       <use xlink:href="#DejaVuSans-31"/>
       <use x="63.623047" xlink:href="#DejaVuSans-30"/>
       <use x="127.246094" xlink:href="#DejaVuSans-30"/>
       <use x="190.869141" xlink:href="#DejaVuSans-30"/>
      </g>
     </g>
    </g>
    <g id="xtick_3">
     <g id="line2d_3">
      <g>
       <use style="stroke:#000000;stroke-width:0.8;" x="194.769418" xlink:href="#mc54031f74f" y="307.584"/>
      </g>
     </g>
     <g id="text_3">
      <!-- 2000 -->
      <defs>
       <path d="M 19.1875 8.296875 
L 53.609375 8.296875 
L 53.609375 0 
L 7.328125 0 
L 7.328125 8.296875 
Q 12.9375 14.109375 22.625 23.890625 
Q 32.328125 33.6875 34.8125 36.53125 
Q 39.546875 41.84375 41.421875 45.53125 
Q 43.3125 49.21875 43.3125 52.78125 
Q 43.3125 58.59375 39.234375 62.25 
Q 35.15625 65.921875 28.609375 65.921875 
Q 23.96875 65.921875 18.8125 64.3125 
Q 13.671875 62.703125 7.8125 59.421875 
L 7.8125 69.390625 
Q 13.765625 71.78125 18.9375 73 
Q 24.125 74.21875 28.421875 74.21875 
Q 39.75 74.21875 46.484375 68.546875 
Q 53.21875 62.890625 53.21875 53.421875 
Q 53.21875 48.921875 51.53125 44.890625 
Q 49.859375 40.875 45.40625 35.40625 
Q 44.1875 33.984375 37.640625 27.21875 
Q 31.109375 20.453125 19.1875 8.296875 
z
" id="DejaVuSans-32"/>
      </defs>
      <g transform="translate(182.044418 322.182437)scale(0.1 -0.1)">
       <use xlink:href="#DejaVuSans-32"/>
       <use x="63.623047" xlink:href="#DejaVuSans-30"/>
       <use x="127.246094" xlink:href="#DejaVuSans-30"/>
       <use x="190.869141" xlink:href="#DejaVuSans-30"/>
      </g>
     </g>
    </g>
    <g id="xtick_4">
     <g id="line2d_4">
      <g>
       <use style="stroke:#000000;stroke-width:0.8;" x="255.237763" xlink:href="#mc54031f74f" y="307.584"/>
      </g>
     </g>
     <g id="text_4">
      <!-- 3000 -->
      <defs>
       <path d="M 40.578125 39.3125 
Q 47.65625 37.796875 51.625 33 
Q 55.609375 28.21875 55.609375 21.1875 
Q 55.609375 10.40625 48.1875 4.484375 
Q 40.765625 -1.421875 27.09375 -1.421875 
Q 22.515625 -1.421875 17.65625 -0.515625 
Q 12.796875 0.390625 7.625 2.203125 
L 7.625 11.71875 
Q 11.71875 9.328125 16.59375 8.109375 
Q 21.484375 6.890625 26.8125 6.890625 
Q 36.078125 6.890625 40.9375 10.546875 
Q 45.796875 14.203125 45.796875 21.1875 
Q 45.796875 27.640625 41.28125 31.265625 
Q 36.765625 34.90625 28.71875 34.90625 
L 20.21875 34.90625 
L 20.21875 43.015625 
L 29.109375 43.015625 
Q 36.375 43.015625 40.234375 45.921875 
Q 44.09375 48.828125 44.09375 54.296875 
Q 44.09375 59.90625 40.109375 62.90625 
Q 36.140625 65.921875 28.71875 65.921875 
Q 24.65625 65.921875 20.015625 65.03125 
Q 15.375 64.15625 9.8125 62.3125 
L 9.8125 71.09375 
Q 15.4375 72.65625 20.34375 73.4375 
Q 25.25 74.21875 29.59375 74.21875 
Q 40.828125 74.21875 47.359375 69.109375 
Q 53.90625 64.015625 53.90625 55.328125 
Q 53.90625 49.265625 50.4375 45.09375 
Q 46.96875 40.921875 40.578125 39.3125 
z
" id="DejaVuSans-33"/>
      </defs>
      <g transform="translate(242.512763 322.182437)scale(0.1 -0.1)">
       <use xlink:href="#DejaVuSans-33"/>
       <use x="63.623047" xlink:href="#DejaVuSans-30"/>
       <use x="127.246094" xlink:href="#DejaVuSans-30"/>
       <use x="190.869141" xlink:href="#DejaVuSans-30"/>
      </g>
     </g>
    </g>
    <g id="xtick_5">
     <g id="line2d_5">
      <g>
       <use style="stroke:#000000;stroke-width:0.8;" x="315.706108" xlink:href="#mc54031f74f" y="307.584"/>
      </g>
     </g>
     <g id="text_5">
      <!-- 4000 -->
      <defs>
       <path d="M 37.796875 64.3125 
L 12.890625 25.390625 
L 37.796875 25.390625 
z
M 35.203125 72.90625 
L 47.609375 72.90625 
L 47.609375 25.390625 
L 58.015625 25.390625 
L 58.015625 17.1875 
L 47.609375 17.1875 
L 47.609375 0 
L 37.796875 0 
L 37.796875 17.1875 
L 4.890625 17.1875 
L 4.890625 26.703125 
z
" id="DejaVuSans-34"/>
      </defs>
      <g transform="translate(302.981108 322.182437)scale(0.1 -0.1)">
       <use xlink:href="#DejaVuSans-34"/>
       <use x="63.623047" xlink:href="#DejaVuSans-30"/>
       <use x="127.246094" xlink:href="#DejaVuSans-30"/>
       <use x="190.869141" xlink:href="#DejaVuSans-30"/>
      </g>
     </g>
    </g>
    <g id="xtick_6">
     <g id="line2d_6">
      <g>
       <use style="stroke:#000000;stroke-width:0.8;" x="376.174453" xlink:href="#mc54031f74f" y="307.584"/>
      </g>
     </g>
     <g id="text_6">
      <!-- 5000 -->
      <defs>
       <path d="M 10.796875 72.90625 
L 49.515625 72.90625 
L 49.515625 64.59375 
L 19.828125 64.59375 
L 19.828125 46.734375 
Q 21.96875 47.46875 24.109375 47.828125 
Q 26.265625 48.1875 28.421875 48.1875 
Q 40.625 48.1875 47.75 41.5 
Q 54.890625 34.8125 54.890625 23.390625 
Q 54.890625 11.625 47.5625 5.09375 
Q 40.234375 -1.421875 26.90625 -1.421875 
Q 22.3125 -1.421875 17.546875 -0.640625 
Q 12.796875 0.140625 7.71875 1.703125 
L 7.71875 11.625 
Q 12.109375 9.234375 16.796875 8.0625 
Q 21.484375 6.890625 26.703125 6.890625 
Q 35.15625 6.890625 40.078125 11.328125 
Q 45.015625 15.765625 45.015625 23.390625 
Q 45.015625 31 40.078125 35.4375 
Q 35.15625 39.890625 26.703125 39.890625 
Q 22.75 39.890625 18.8125 39.015625 
Q 14.890625 38.140625 10.796875 36.28125 
z
" id="DejaVuSans-35"/>
      </defs>
      <g transform="translate(363.449453 322.182437)scale(0.1 -0.1)">
       <use xlink:href="#DejaVuSans-35"/>
       <use x="63.623047" xlink:href="#DejaVuSans-30"/>
       <use x="127.246094" xlink:href="#DejaVuSans-30"/>
       <use x="190.869141" xlink:href="#DejaVuSans-30"/>
      </g>
     </g>
    </g>
    <g id="text_7">
     <!-- Zeit -->
     <defs>
      <path d="M 5.609375 72.90625 
L 62.890625 72.90625 
L 62.890625 65.375 
L 16.796875 8.296875 
L 64.015625 8.296875 
L 64.015625 0 
L 4.5 0 
L 4.5 7.515625 
L 50.59375 64.59375 
L 5.609375 64.59375 
z
" id="DejaVuSans-5a"/>
      <path d="M 56.203125 29.59375 
L 56.203125 25.203125 
L 14.890625 25.203125 
Q 15.484375 15.921875 20.484375 11.0625 
Q 25.484375 6.203125 34.421875 6.203125 
Q 39.59375 6.203125 44.453125 7.46875 
Q 49.3125 8.734375 54.109375 11.28125 
L 54.109375 2.78125 
Q 49.265625 0.734375 44.1875 -0.34375 
Q 39.109375 -1.421875 33.890625 -1.421875 
Q 20.796875 -1.421875 13.15625 6.1875 
Q 5.515625 13.8125 5.515625 26.8125 
Q 5.515625 40.234375 12.765625 48.109375 
Q 20.015625 56 32.328125 56 
Q 43.359375 56 49.78125 48.890625 
Q 56.203125 41.796875 56.203125 29.59375 
z
M 47.21875 32.234375 
Q 47.125 39.59375 43.09375 43.984375 
Q 39.0625 48.390625 32.421875 48.390625 
Q 24.90625 48.390625 20.390625 44.140625 
Q 15.875 39.890625 15.1875 32.171875 
z
" id="DejaVuSans-65"/>
      <path d="M 9.421875 54.6875 
L 18.40625 54.6875 
L 18.40625 0 
L 9.421875 0 
z
M 9.421875 75.984375 
L 18.40625 75.984375 
L 18.40625 64.59375 
L 9.421875 64.59375 
z
" id="DejaVuSans-69"/>
      <path d="M 18.3125 70.21875 
L 18.3125 54.6875 
L 36.8125 54.6875 
L 36.8125 47.703125 
L 18.3125 47.703125 
L 18.3125 18.015625 
Q 18.3125 11.328125 20.140625 9.421875 
Q 21.96875 7.515625 27.59375 7.515625 
L 36.8125 7.515625 
L 36.8125 0 
L 27.59375 0 
Q 17.1875 0 13.234375 3.875 
Q 9.28125 7.765625 9.28125 18.015625 
L 9.28125 47.703125 
L 2.6875 47.703125 
L 2.6875 54.6875 
L 9.28125 54.6875 
L 9.28125 70.21875 
z
" id="DejaVuSans-74"/>
     </defs>
     <g transform="translate(226.309219 335.860562)scale(0.1 -0.1)">
      <use xlink:href="#DejaVuSans-5a"/>
      <use x="68.505859" xlink:href="#DejaVuSans-65"/>
      <use x="130.029297" xlink:href="#DejaVuSans-69"/>
      <use x="157.8125" xlink:href="#DejaVuSans-74"/>
     </g>
    </g>
   </g>
   <g id="matplotlib.axis_2">
    <g id="ytick_1">
     <g id="line2d_7">
      <defs>
       <path d="M 0 0 
L -3.5 0 
" id="m18a00c81fe" style="stroke:#000000;stroke-width:0.8;"/>
      </defs>
      <g>
       <use style="stroke:#000000;stroke-width:0.8;" x="57.6" xlink:href="#m18a00c81fe" y="295.491839"/>
      </g>
     </g>
     <g id="text_8">
      <!-- 0.0 -->
      <defs>
       <path d="M 10.6875 12.40625 
L 21 12.40625 
L 21 0 
L 10.6875 0 
z
" id="DejaVuSans-2e"/>
      </defs>
      <g transform="translate(34.696875 299.291058)scale(0.1 -0.1)">
       <use xlink:href="#DejaVuSans-30"/>
       <use x="63.623047" xlink:href="#DejaVuSans-2e"/>
       <use x="95.410156" xlink:href="#DejaVuSans-30"/>
      </g>
     </g>
    </g>
    <g id="ytick_2">
     <g id="line2d_8">
      <g>
       <use style="stroke:#000000;stroke-width:0.8;" x="57.6" xlink:href="#m18a00c81fe" y="239.686331"/>
      </g>
     </g>
     <g id="text_9">
      <!-- 0.5 -->
      <g transform="translate(34.696875 243.48555)scale(0.1 -0.1)">
       <use xlink:href="#DejaVuSans-30"/>
       <use x="63.623047" xlink:href="#DejaVuSans-2e"/>
       <use x="95.410156" xlink:href="#DejaVuSans-35"/>
      </g>
     </g>
    </g>
    <g id="ytick_3">
     <g id="line2d_9">
      <g>
       <use style="stroke:#000000;stroke-width:0.8;" x="57.6" xlink:href="#m18a00c81fe" y="183.880823"/>
      </g>
     </g>
     <g id="text_10">
      <!-- 1.0 -->
      <g transform="translate(34.696875 187.680041)scale(0.1 -0.1)">
       <use xlink:href="#DejaVuSans-31"/>
       <use x="63.623047" xlink:href="#DejaVuSans-2e"/>
       <use x="95.410156" xlink:href="#DejaVuSans-30"/>
      </g>
     </g>
    </g>
    <g id="ytick_4">
     <g id="line2d_10">
      <g>
       <use style="stroke:#000000;stroke-width:0.8;" x="57.6" xlink:href="#m18a00c81fe" y="128.075315"/>
      </g>
     </g>
     <g id="text_11">
      <!-- 1.5 -->
      <g transform="translate(34.696875 131.874533)scale(0.1 -0.1)">
       <use xlink:href="#DejaVuSans-31"/>
       <use x="63.623047" xlink:href="#DejaVuSans-2e"/>
       <use x="95.410156" xlink:href="#DejaVuSans-35"/>
      </g>
     </g>
    </g>
    <g id="ytick_5">
     <g id="line2d_11">
      <g>
       <use style="stroke:#000000;stroke-width:0.8;" x="57.6" xlink:href="#m18a00c81fe" y="72.269806"/>
      </g>
     </g>
     <g id="text_12">
      <!-- 2.0 -->
      <g transform="translate(34.696875 76.069025)scale(0.1 -0.1)">
       <use xlink:href="#DejaVuSans-32"/>
       <use x="63.623047" xlink:href="#DejaVuSans-2e"/>
       <use x="95.410156" xlink:href="#DejaVuSans-30"/>
      </g>
     </g>
    </g>
    <g id="text_13">
     <!-- Distanz -->
     <defs>
      <path d="M 19.671875 64.796875 
L 19.671875 8.109375 
L 31.59375 8.109375 
Q 46.6875 8.109375 53.6875 14.9375 
Q 60.6875 21.78125 60.6875 36.53125 
Q 60.6875 51.171875 53.6875 57.984375 
Q 46.6875 64.796875 31.59375 64.796875 
z
M 9.8125 72.90625 
L 30.078125 72.90625 
Q 51.265625 72.90625 61.171875 64.09375 
Q 71.09375 55.28125 71.09375 36.53125 
Q 71.09375 17.671875 61.125 8.828125 
Q 51.171875 0 30.078125 0 
L 9.8125 0 
z
" id="DejaVuSans-44"/>
      <path d="M 44.28125 53.078125 
L 44.28125 44.578125 
Q 40.484375 46.53125 36.375 47.5 
Q 32.28125 48.484375 27.875 48.484375 
Q 21.1875 48.484375 17.84375 46.4375 
Q 14.5 44.390625 14.5 40.28125 
Q 14.5 37.15625 16.890625 35.375 
Q 19.28125 33.59375 26.515625 31.984375 
L 29.59375 31.296875 
Q 39.15625 29.25 43.1875 25.515625 
Q 47.21875 21.78125 47.21875 15.09375 
Q 47.21875 7.46875 41.1875 3.015625 
Q 35.15625 -1.421875 24.609375 -1.421875 
Q 20.21875 -1.421875 15.453125 -0.5625 
Q 10.6875 0.296875 5.421875 2 
L 5.421875 11.28125 
Q 10.40625 8.6875 15.234375 7.390625 
Q 20.0625 6.109375 24.8125 6.109375 
Q 31.15625 6.109375 34.5625 8.28125 
Q 37.984375 10.453125 37.984375 14.40625 
Q 37.984375 18.0625 35.515625 20.015625 
Q 33.0625 21.96875 24.703125 23.78125 
L 21.578125 24.515625 
Q 13.234375 26.265625 9.515625 29.90625 
Q 5.8125 33.546875 5.8125 39.890625 
Q 5.8125 47.609375 11.28125 51.796875 
Q 16.75 56 26.8125 56 
Q 31.78125 56 36.171875 55.265625 
Q 40.578125 54.546875 44.28125 53.078125 
z
" id="DejaVuSans-73"/>
      <path d="M 34.28125 27.484375 
Q 23.390625 27.484375 19.1875 25 
Q 14.984375 22.515625 14.984375 16.5 
Q 14.984375 11.71875 18.140625 8.90625 
Q 21.296875 6.109375 26.703125 6.109375 
Q 34.1875 6.109375 38.703125 11.40625 
Q 43.21875 16.703125 43.21875 25.484375 
L 43.21875 27.484375 
z
M 52.203125 31.203125 
L 52.203125 0 
L 43.21875 0 
L 43.21875 8.296875 
Q 40.140625 3.328125 35.546875 0.953125 
Q 30.953125 -1.421875 24.3125 -1.421875 
Q 15.921875 -1.421875 10.953125 3.296875 
Q 6 8.015625 6 15.921875 
Q 6 25.140625 12.171875 29.828125 
Q 18.359375 34.515625 30.609375 34.515625 
L 43.21875 34.515625 
L 43.21875 35.40625 
Q 43.21875 41.609375 39.140625 45 
Q 35.0625 48.390625 27.6875 48.390625 
Q 23 48.390625 18.546875 47.265625 
Q 14.109375 46.140625 10.015625 43.890625 
L 10.015625 52.203125 
Q 14.9375 54.109375 19.578125 55.046875 
Q 24.21875 56 28.609375 56 
Q 40.484375 56 46.34375 49.84375 
Q 52.203125 43.703125 52.203125 31.203125 
z
" id="DejaVuSans-61"/>
      <path d="M 54.890625 33.015625 
L 54.890625 0 
L 45.90625 0 
L 45.90625 32.71875 
Q 45.90625 40.484375 42.875 44.328125 
Q 39.84375 48.1875 33.796875 48.1875 
Q 26.515625 48.1875 22.3125 43.546875 
Q 18.109375 38.921875 18.109375 30.90625 
L 18.109375 0 
L 9.078125 0 
L 9.078125 54.6875 
L 18.109375 54.6875 
L 18.109375 46.1875 
Q 21.34375 51.125 25.703125 53.5625 
Q 30.078125 56 35.796875 56 
Q 45.21875 56 50.046875 50.171875 
Q 54.890625 44.34375 54.890625 33.015625 
z
" id="DejaVuSans-6e"/>
      <path d="M 5.515625 54.6875 
L 48.1875 54.6875 
L 48.1875 46.484375 
L 14.40625 7.171875 
L 48.1875 7.171875 
L 48.1875 0 
L 4.296875 0 
L 4.296875 8.203125 
L 38.09375 47.515625 
L 5.515625 47.515625 
z
" id="DejaVuSans-7a"/>
     </defs>
     <g transform="translate(28.617187 193.188937)rotate(-90)scale(0.1 -0.1)">
      <use xlink:href="#DejaVuSans-44"/>
      <use x="77.001953" xlink:href="#DejaVuSans-69"/>
      <use x="104.785156" xlink:href="#DejaVuSans-73"/>
      <use x="156.884766" xlink:href="#DejaVuSans-74"/>
      <use x="196.09375" xlink:href="#DejaVuSans-61"/>
      <use x="257.373047" xlink:href="#DejaVuSans-6e"/>
      <use x="320.751953" xlink:href="#DejaVuSans-7a"/>
     </g>
    </g>
   </g>
   <g id="line2d_12">
    <path clip-path="url(#p972f2b2f75)" d="M 73.832727 295.488 
L 73.953664 72.268334 
L 163.386347 72.144747 
L 163.446815 72.09939 
L 165.563207 64.265793 
L 168.586624 53.572524 
L 169.070371 54.033057 
L 169.251776 53.933187 
L 169.433181 54.09923 
L 170.340206 55.323847 
L 171.610041 57.531152 
L 171.912383 57.911075 
L 171.972852 57.925157 
L 172.335662 58.813061 
L 172.456598 58.939392 
L 172.75894 59.645738 
L 173.363623 60.93064 
L 179.34999 72.77059 
L 182.61528 78.503158 
L 183.401369 79.887162 
L 183.824647 80.64313 
L 187.634153 86.761029 
L 187.996963 87.493314 
L 191.02038 91.972193 
L 196.764873 99.810883 
L 196.88581 99.926355 
L 197.490493 100.686018 
L 199.002202 102.62158 
L 200.272037 104.405053 
L 202.569834 107.635659 
L 203.234986 108.474951 
L 207.83058 114.344157 
L 208.374795 114.989809 
L 213.393668 121.13897 
L 214.240225 121.819555 
L 215.87287 123.68251 
L 216.779895 124.658706 
L 221.073148 128.782977 
L 221.677831 129.325774 
L 222.222046 129.864629 
L 223.008135 130.705622 
L 224.338439 132.080178 
L 225.00359 132.950001 
L 225.245464 133.099155 
L 225.789679 133.596428 
L 226.152489 133.74539 
L 226.757172 133.85855 
L 228.208413 135.033293 
L 228.934033 135.644808 
L 230.989956 136.989009 
L 231.292298 136.915962 
L 232.078387 137.452279 
L 232.864475 138.259957 
L 233.348222 138.954555 
L 233.831969 139.584017 
L 233.892437 139.56135 
L 234.738994 141.160144 
L 235.222741 141.790004 
L 235.887892 142.666971 
L 238.004285 145.45128 
L 238.729905 146.79694 
L 239.455525 148.053784 
L 241.330044 152.912436 
L 241.692854 153.821203 
L 242.1766 154.689846 
L 242.53941 155.225682 
L 243.083626 155.946419 
L 243.688309 156.560017 
L 243.869714 156.650018 
L 244.958144 157.855117 
L 245.502359 158.068644 
L 245.683764 158.026279 
L 245.925638 157.914215 
L 246.288448 158.130791 
L 246.651258 158.595877 
L 249.553738 165.917264 
L 250.097954 167.372777 
L 250.823574 169.144577 
L 252.395751 173.672224 
L 255.540105 180.752455 
L 256.023851 181.697122 
L 256.749472 183.208523 
L 259.893825 189.087073 
L 263.521926 195.935892 
L 263.7638 196.395549 
L 264.308015 197.440827 
L 265.21504 199.16088 
L 266.061597 200.735739 
L 266.424407 201.484263 
L 267.02909 202.505577 
L 267.452369 202.99963 
L 270.536254 208.947272 
L 270.778128 209.320069 
L 271.624684 210.80752 
L 272.047963 211.189798 
L 273.741077 212.772809 
L 274.587633 213.147954 
L 274.950443 213.212484 
L 275.313254 213.310923 
L 275.615595 213.353782 
L 276.220279 213.674502 
L 276.583089 213.999724 
L 276.885431 214.114273 
L 277.490114 214.152142 
L 278.880886 214.980038 
L 279.122759 215.024907 
L 279.787911 215.50972 
L 280.029784 215.794019 
L 280.634468 216.251169 
L 281.118215 215.965244 
L 281.420556 215.771861 
L 281.66243 215.873298 
L 282.448518 216.156978 
L 283.597417 216.710102 
L 284.685847 217.749665 
L 285.29053 217.77577 
L 286.137087 218.266699 
L 286.681302 218.386937 
L 288.434884 219.453414 
L 288.616289 219.557169 
L 289.100036 219.924889 
L 289.402378 219.960313 
L 289.765188 219.776122 
L 289.946593 219.827238 
L 290.248935 220.145421 
L 290.672213 220.524129 
L 291.397833 221.200912 
L 291.639707 221.485373 
L 291.942048 221.741402 
L 292.24439 222.279239 
L 292.728137 223.104614 
L 293.453757 224.415241 
L 293.816567 225.011779 
L 294.179377 225.430891 
L 294.602656 225.66644 
L 294.844529 225.707742 
L 295.025934 225.74633 
L 295.388744 226.057792 
L 295.691086 226.323107 
L 295.932959 226.407534 
L 296.295769 226.154477 
L 296.537643 226.250664 
L 296.779516 226.413313 
L 297.3842 227.333351 
L 297.807478 228.299811 
L 298.10982 229.247331 
L 298.533098 230.54479 
L 298.774971 230.942696 
L 299.137782 230.993789 
L 300.226212 231.228464 
L 300.468085 231.180301 
L 300.64949 231.438126 
L 301.072769 232.083247 
L 301.314642 232.210516 
L 302.161199 232.010014 
L 302.947287 232.410888 
L 303.310097 232.557861 
L 303.672907 232.644949 
L 304.217123 232.615446 
L 304.579933 232.090675 
L 305.063679 232.215606 
L 305.547426 232.967128 
L 306.212578 233.46417 
L 306.51492 233.402623 
L 306.756793 233.269479 
L 307.180071 232.912442 
L 307.482413 232.825699 
L 307.724287 232.865642 
L 308.087097 233.251008 
L 308.32897 233.468404 
L 309.296464 233.955115 
L 310.082552 233.528085 
L 310.263957 233.216296 
L 310.324425 233.28804 
L 310.50583 233.605288 
L 310.868641 234.327039 
L 311.291919 234.75222 
L 311.533792 235.210181 
L 311.654729 235.199007 
L 311.957071 234.982635 
L 312.380349 235.781188 
L 312.682691 235.894038 
L 313.045501 236.475003 
L 313.105969 236.380768 
L 313.287374 236.23799 
L 313.529248 236.137547 
L 313.831589 235.843066 
L 314.012994 235.809134 
L 314.55721 237.490703 
L 314.678146 237.768085 
L 314.980488 238.364979 
L 315.464235 238.648627 
L 315.887513 238.142992 
L 316.068918 238.079518 
L 316.250323 238.188748 
L 316.492197 238.295928 
L 316.673602 238.194786 
L 316.855007 238.349179 
L 316.975943 238.422443 
L 317.338753 239.319848 
L 317.399222 239.295666 
L 317.701564 239.392909 
L 317.8225 239.386958 
L 318.003905 239.531998 
L 318.366715 239.740703 
L 318.54812 239.747234 
L 319.031867 239.962549 
L 319.27374 240.461501 
L 319.697019 240.742509 
L 319.938892 240.963322 
L 320.180766 241.026367 
L 321.208728 241.40885 
L 321.571538 241.679169 
L 321.632006 241.592319 
L 321.934348 241.051169 
L 322.115753 240.699077 
L 322.357626 241.402417 
L 322.659968 242.352137 
L 322.780905 242.145589 
L 323.204183 241.10961 
L 323.566993 241.805632 
L 323.627461 241.864523 
L 323.68793 241.78912 
L 323.929803 241.383014 
L 324.05074 241.235005 
L 324.111208 241.326966 
L 324.474018 242.007693 
L 324.534487 241.923953 
L 324.957765 241.534729 
L 325.078702 241.553024 
L 325.199638 241.570081 
L 325.381043 241.412938 
L 325.441512 241.563477 
L 325.622917 241.87415 
L 325.86479 242.009609 
L 326.2276 241.931034 
L 326.409005 242.003257 
L 326.469474 241.929075 
L 326.529942 242.007878 
L 326.771815 241.89661 
L 327.074157 241.493781 
L 327.134625 241.600261 
L 327.195094 241.692358 
L 327.255562 241.64494 
L 327.497435 241.502988 
L 327.67884 241.84619 
L 327.860246 242.137882 
L 328.102119 242.280314 
L 328.283524 241.999249 
L 328.525397 242.725732 
L 328.646334 242.632431 
L 328.948676 242.859503 
L 329.553359 242.96031 
L 329.976638 243.633511 
L 330.158043 243.752332 
L 330.278979 243.880727 
L 330.399916 244.028841 
L 330.641789 243.960457 
L 330.762726 244.144006 
L 330.823194 244.106135 
L 331.306941 244.410172 
L 331.548815 244.574261 
L 332.213966 244.554744 
L 332.758181 244.945996 
L 332.879118 245.036485 
L 333.423333 245.317039 
L 333.90708 245.775935 
L 334.028017 245.841054 
L 334.148953 245.823049 
L 334.451295 246.066452 
L 335.176915 246.466622 
L 336.990966 246.854376 
L 337.232839 247.112109 
L 337.958459 247.071328 
L 338.079396 247.116955 
L 338.139864 247.052692 
L 338.200333 247.127496 
L 338.321269 247.068744 
L 338.442206 247.067594 
L 338.865484 247.338833 
L 339.167826 247.521466 
L 339.409699 247.662571 
L 339.651573 247.627587 
L 339.832978 247.821158 
L 340.981876 248.53615 
L 341.163281 248.500655 
L 341.888902 248.939952 
L 341.94937 248.840145 
L 342.009838 248.882769 
L 342.130775 248.750295 
L 342.372648 248.72099 
L 342.916863 249.05195 
L 343.098269 248.986606 
L 343.279674 249.063669 
L 343.76342 249.120555 
L 343.944825 249.207047 
L 344.247167 249.387334 
L 344.670445 249.502535 
L 344.851851 249.424418 
L 346.605433 249.238266 
L 347.270584 248.604005 
L 347.451989 248.897576 
L 347.633394 248.826236 
L 347.935736 248.863546 
L 348.359015 248.88324 
L 349.26604 248.971997 
L 350.535875 249.043912 
L 351.08009 249.047547 
L 351.624305 248.554203 
L 351.866179 248.665252 
L 352.470862 248.615406 
L 353.075545 248.838263 
L 354.284912 250.079873 
L 355.433811 250.446934 
L 355.796621 250.391753 
L 355.857089 250.452764 
L 355.917558 250.378722 
L 356.340836 250.318462 
L 356.582709 250.181284 
L 357.005988 249.881976 
L 357.30833 249.701541 
L 357.429266 249.739334 
L 357.489735 249.754508 
L 357.550203 249.628076 
L 357.610671 249.680749 
L 357.852545 249.556173 
L 358.154886 249.359231 
L 358.578165 249.47088 
L 358.699102 249.49251 
L 359.061912 249.28688 
L 359.908468 249.043195 
L 360.029405 249.037761 
L 360.21081 249.043447 
L 361.541114 249.175016 
L 361.903924 249.256951 
L 362.206266 249.260991 
L 362.387671 249.309078 
L 363.173759 249.188629 
L 363.476101 248.937032 
L 363.657506 248.937697 
L 364.080784 248.221682 
L 364.262189 248.154297 
L 365.894835 247.110708 
L 367.16467 246.863843 
L 367.52748 246.935235 
L 368.313568 247.257928 
L 368.494974 247.363597 
L 368.61591 247.436769 
L 369.160125 246.752412 
L 369.281062 246.76486 
L 369.825277 247.740054 
L 370.006682 247.856485 
L 370.248556 248.243895 
L 370.611366 248.941979 
L 370.913707 248.871898 
L 371.276517 249.664942 
L 371.518391 249.548789 
L 371.578859 249.46347 
L 371.639327 249.523849 
L 371.820732 249.630853 
L 372.364948 249.086884 
L 373.271973 249.892066 
L 373.816188 250.015407 
L 374.360403 249.544164 
L 374.541808 249.858934 
L 374.723213 249.846314 
L 375.146491 250.183325 
L 375.56977 250.902754 
L 377.988504 251.39876 
L 378.10944 251.108878 
L 378.351314 251.681752 
L 378.411782 251.627724 
L 378.714124 251.575214 
L 378.835061 251.620331 
L 378.955997 251.570839 
L 379.197871 251.806773 
L 379.379276 251.892384 
L 379.500212 251.769083 
L 379.742086 251.925663 
L 380.346769 251.978403 
L 380.467706 252.173902 
L 380.588643 252.11316 
L 381.132858 252.274427 
L 381.314263 252.239156 
L 381.616604 252.218297 
L 382.765503 252.228111 
L 382.946908 252.310392 
L 383.370186 252.424194 
L 383.672528 252.555437 
L 383.793465 252.482561 
L 384.156275 252.633289 
L 384.458617 252.646835 
L 384.70049 252.502294 
L 384.942363 252.42852 
L 385.547047 251.936337 
L 385.970325 251.342972 
L 386.635477 250.523845 
L 386.816882 250.504137 
L 386.998287 250.665934 
L 387.663439 251.601183 
L 388.268122 252.407623 
L 388.449527 252.35112 
L 389.114679 251.70401 
L 389.779831 250.717542 
L 390.082173 249.938981 
L 390.324046 249.636206 
L 390.384514 249.639028 
L 390.807793 248.685093 
L 392.01716 247.199593 
L 392.259033 246.737214 
L 392.621843 246.898476 
L 392.924185 246.961413 
L 393.4684 245.931728 
L 393.589337 246.041716 
L 394.375425 245.100217 
L 394.435894 245.189426 
L 394.798704 246.452281 
L 395.040577 246.953664 
L 395.403387 246.891696 
L 395.584792 246.947868 
L 395.826666 246.924344 
L 396.008071 247.131685 
L 396.249944 247.243919 
L 396.370881 247.306957 
L 396.975564 248.303334 
L 397.217437 248.007203 
L 397.459311 247.909844 
L 398.184931 247.513304 
L 398.366336 247.606778 
L 398.487273 247.904965 
L 398.487273 247.904965 
" style="fill:none;stroke:#1f77b4;stroke-linecap:square;stroke-width:1.5;"/>
   </g>
   <g id="patch_3">
    <path d="M 57.6 307.584 
L 57.6 41.472 
" style="fill:none;stroke:#000000;stroke-linecap:square;stroke-linejoin:miter;stroke-width:0.8;"/>
   </g>
   <g id="patch_4">
    <path d="M 414.72 307.584 
L 414.72 41.472 
" style="fill:none;stroke:#000000;stroke-linecap:square;stroke-linejoin:miter;stroke-width:0.8;"/>
   </g>
   <g id="patch_5">
    <path d="M 57.6 307.584 
L 414.72 307.584 
" style="fill:none;stroke:#000000;stroke-linecap:square;stroke-linejoin:miter;stroke-width:0.8;"/>
   </g>
   <g id="patch_6">
    <path d="M 57.6 41.472 
L 414.72 41.472 
" style="fill:none;stroke:#000000;stroke-linecap:square;stroke-linejoin:miter;stroke-width:0.8;"/>
   </g>
   <g id="text_14">
    <!-- Roboterabstand -->
    <defs>
     <path d="M 44.390625 34.1875 
Q 47.5625 33.109375 50.5625 29.59375 
Q 53.5625 26.078125 56.59375 19.921875 
L 66.609375 0 
L 56 0 
L 46.6875 18.703125 
Q 43.0625 26.03125 39.671875 28.421875 
Q 36.28125 30.8125 30.421875 30.8125 
L 19.671875 30.8125 
L 19.671875 0 
L 9.8125 0 
L 9.8125 72.90625 
L 32.078125 72.90625 
Q 44.578125 72.90625 50.734375 67.671875 
Q 56.890625 62.453125 56.890625 51.90625 
Q 56.890625 45.015625 53.6875 40.46875 
Q 50.484375 35.9375 44.390625 34.1875 
z
M 19.671875 64.796875 
L 19.671875 38.921875 
L 32.078125 38.921875 
Q 39.203125 38.921875 42.84375 42.21875 
Q 46.484375 45.515625 46.484375 51.90625 
Q 46.484375 58.296875 42.84375 61.546875 
Q 39.203125 64.796875 32.078125 64.796875 
z
" id="DejaVuSans-52"/>
     <path d="M 30.609375 48.390625 
Q 23.390625 48.390625 19.1875 42.75 
Q 14.984375 37.109375 14.984375 27.296875 
Q 14.984375 17.484375 19.15625 11.84375 
Q 23.34375 6.203125 30.609375 6.203125 
Q 37.796875 6.203125 41.984375 11.859375 
Q 46.1875 17.53125 46.1875 27.296875 
Q 46.1875 37.015625 41.984375 42.703125 
Q 37.796875 48.390625 30.609375 48.390625 
z
M 30.609375 56 
Q 42.328125 56 49.015625 48.375 
Q 55.71875 40.765625 55.71875 27.296875 
Q 55.71875 13.875 49.015625 6.21875 
Q 42.328125 -1.421875 30.609375 -1.421875 
Q 18.84375 -1.421875 12.171875 6.21875 
Q 5.515625 13.875 5.515625 27.296875 
Q 5.515625 40.765625 12.171875 48.375 
Q 18.84375 56 30.609375 56 
z
" id="DejaVuSans-6f"/>
     <path d="M 48.6875 27.296875 
Q 48.6875 37.203125 44.609375 42.84375 
Q 40.53125 48.484375 33.40625 48.484375 
Q 26.265625 48.484375 22.1875 42.84375 
Q 18.109375 37.203125 18.109375 27.296875 
Q 18.109375 17.390625 22.1875 11.75 
Q 26.265625 6.109375 33.40625 6.109375 
Q 40.53125 6.109375 44.609375 11.75 
Q 48.6875 17.390625 48.6875 27.296875 
z
M 18.109375 46.390625 
Q 20.953125 51.265625 25.265625 53.625 
Q 29.59375 56 35.59375 56 
Q 45.5625 56 51.78125 48.09375 
Q 58.015625 40.1875 58.015625 27.296875 
Q 58.015625 14.40625 51.78125 6.484375 
Q 45.5625 -1.421875 35.59375 -1.421875 
Q 29.59375 -1.421875 25.265625 0.953125 
Q 20.953125 3.328125 18.109375 8.203125 
L 18.109375 0 
L 9.078125 0 
L 9.078125 75.984375 
L 18.109375 75.984375 
z
" id="DejaVuSans-62"/>
     <path d="M 41.109375 46.296875 
Q 39.59375 47.171875 37.8125 47.578125 
Q 36.03125 48 33.890625 48 
Q 26.265625 48 22.1875 43.046875 
Q 18.109375 38.09375 18.109375 28.8125 
L 18.109375 0 
L 9.078125 0 
L 9.078125 54.6875 
L 18.109375 54.6875 
L 18.109375 46.1875 
Q 20.953125 51.171875 25.484375 53.578125 
Q 30.03125 56 36.53125 56 
Q 37.453125 56 38.578125 55.875 
Q 39.703125 55.765625 41.0625 55.515625 
z
" id="DejaVuSans-72"/>
     <path d="M 45.40625 46.390625 
L 45.40625 75.984375 
L 54.390625 75.984375 
L 54.390625 0 
L 45.40625 0 
L 45.40625 8.203125 
Q 42.578125 3.328125 38.25 0.953125 
Q 33.9375 -1.421875 27.875 -1.421875 
Q 17.96875 -1.421875 11.734375 6.484375 
Q 5.515625 14.40625 5.515625 27.296875 
Q 5.515625 40.1875 11.734375 48.09375 
Q 17.96875 56 27.875 56 
Q 33.9375 56 38.25 53.625 
Q 42.578125 51.265625 45.40625 46.390625 
z
M 14.796875 27.296875 
Q 14.796875 17.390625 18.875 11.75 
Q 22.953125 6.109375 30.078125 6.109375 
Q 37.203125 6.109375 41.296875 11.75 
Q 45.40625 17.390625 45.40625 27.296875 
Q 45.40625 37.203125 41.296875 42.84375 
Q 37.203125 48.484375 30.078125 48.484375 
Q 22.953125 48.484375 18.875 42.84375 
Q 14.796875 37.203125 14.796875 27.296875 
z
" id="DejaVuSans-64"/>
    </defs>
    <g transform="translate(188.080312 35.472)scale(0.12 -0.12)">
     <use xlink:href="#DejaVuSans-52"/>
     <use x="69.419922" xlink:href="#DejaVuSans-6f"/>
     <use x="130.601562" xlink:href="#DejaVuSans-62"/>
     <use x="194.078125" xlink:href="#DejaVuSans-6f"/>
     <use x="255.259766" xlink:href="#DejaVuSans-74"/>
     <use x="294.46875" xlink:href="#DejaVuSans-65"/>
     <use x="355.992188" xlink:href="#DejaVuSans-72"/>
     <use x="397.105469" xlink:href="#DejaVuSans-61"/>
     <use x="458.384766" xlink:href="#DejaVuSans-62"/>
     <use x="521.861328" xlink:href="#DejaVuSans-73"/>
     <use x="573.960938" xlink:href="#DejaVuSans-74"/>
     <use x="613.169922" xlink:href="#DejaVuSans-61"/>
     <use x="674.449219" xlink:href="#DejaVuSans-6e"/>
     <use x="737.828125" xlink:href="#DejaVuSans-64"/>
    </g>
   </g>
   <g id="legend_1">
    <g id="patch_7">
     <path d="M 295.587188 64.150125 
L 407.72 64.150125 
Q 409.72 64.150125 409.72 62.150125 
L 409.72 48.472 
Q 409.72 46.472 407.72 46.472 
L 295.587188 46.472 
Q 293.587188 46.472 293.587188 48.472 
L 293.587188 62.150125 
Q 293.587188 64.150125 295.587188 64.150125 
z
" style="fill:#ffffff;opacity:0.8;stroke:#cccccc;stroke-linejoin:miter;"/>
    </g>
    <g id="line2d_13">
     <path d="M 297.587188 54.570438 
L 317.587188 54.570438 
" style="fill:none;stroke:#1f77b4;stroke-linecap:square;stroke-width:1.5;"/>
    </g>
    <g id="line2d_14"/>
    <g id="text_15">
     <!-- Roboterabstand -->
     <g transform="translate(325.587188 58.070438)scale(0.1 -0.1)">
      <use xlink:href="#DejaVuSans-52"/>
      <use x="69.419922" xlink:href="#DejaVuSans-6f"/>
      <use x="130.601562" xlink:href="#DejaVuSans-62"/>
      <use x="194.078125" xlink:href="#DejaVuSans-6f"/>
      <use x="255.259766" xlink:href="#DejaVuSans-74"/>
      <use x="294.46875" xlink:href="#DejaVuSans-65"/>
      <use x="355.992188" xlink:href="#DejaVuSans-72"/>
      <use x="397.105469" xlink:href="#DejaVuSans-61"/>
      <use x="458.384766" xlink:href="#DejaVuSans-62"/>
      <use x="521.861328" xlink:href="#DejaVuSans-73"/>
      <use x="573.960938" xlink:href="#DejaVuSans-74"/>
      <use x="613.169922" xlink:href="#DejaVuSans-61"/>
      <use x="674.449219" xlink:href="#DejaVuSans-6e"/>
      <use x="737.828125" xlink:href="#DejaVuSans-64"/>
     </g>
    </g>
   </g>
  </g>
 </g>
 <defs>
  <clipPath id="p972f2b2f75">
   <rect height="266.112" width="357.12" x="57.6" y="41.472"/>
  </clipPath>
 </defs>
</svg>
